solid ASCII
  facet normal 0.000000e+00 0.000000e+00 -1.000000e+00
    outer loop
      vertex   3.000000e+01 1.956105e+01 2.400000e+01
      vertex   3.803925e+01 1.956105e+01 2.400000e+01
      vertex   3.000000e+01 -5.603895e+01 2.400000e+01
    endloop
  endfacet
  facet normal 0.000000e+00 0.000000e+00 -1.000000e+00
    outer loop
      vertex   3.000000e+01 -5.603895e+01 2.400000e+01
      vertex   3.803925e+01 1.956105e+01 2.400000e+01
      vertex   3.803925e+01 -5.603895e+01 2.400000e+01
    endloop
  endfacet
  facet normal 0.000000e+00 0.000000e+00 -1.000000e+00
    outer loop
      vertex   -3.000000e+01 -5.603895e+01 2.400000e+01
      vertex   -3.756075e+01 -5.603895e+01 2.400000e+01
      vertex   -3.000000e+01 1.956105e+01 2.400000e+01
    endloop
  endfacet
  facet normal -0.000000e+00 0.000000e+00 -1.000000e+00
    outer loop
      vertex   -3.000000e+01 1.956105e+01 2.400000e+01
      vertex   -3.756075e+01 -5.603895e+01 2.400000e+01
      vertex   -3.756075e+01 1.956105e+01 2.400000e+01
    endloop
  endfacet
  facet normal 4.698893e-16 1.000000e+00 -0.000000e+00
    outer loop
      vertex   -3.756075e+01 1.956105e+01 2.400000e+01
      vertex   -3.756075e+01 1.956105e+01 2.620000e+01
      vertex   -3.000000e+01 1.956105e+01 2.400000e+01
    endloop
  endfacet
  facet normal 0.000000e+00 1.000000e+00 -1.614870e-15
    outer loop
      vertex   -3.000000e+01 1.956105e+01 2.400000e+01
      vertex   -3.756075e+01 1.956105e+01 2.620000e+01
      vertex   3.000000e+01 1.956105e+01 2.400000e+01
    endloop
  endfacet
  facet normal 0.000000e+00 1.000000e+00 -1.614870e-15
    outer loop
      vertex   3.000000e+01 1.956105e+01 2.400000e+01
      vertex   -3.756075e+01 1.956105e+01 2.620000e+01
      vertex   3.803925e+01 1.956105e+01 2.620000e+01
    endloop
  endfacet
  facet normal 0.000000e+00 1.000000e+00 -1.614870e-15
    outer loop
      vertex   3.000000e+01 1.956105e+01 2.400000e+01
      vertex   3.803925e+01 1.956105e+01 2.620000e+01
      vertex   3.803925e+01 1.956105e+01 2.400000e+01
    endloop
  endfacet
  facet normal 1.000000e+00 0.000000e+00 0.000000e+00
    outer loop
      vertex   3.803925e+01 -5.603895e+01 2.400000e+01
      vertex   3.803925e+01 1.956105e+01 2.400000e+01
      vertex   3.803925e+01 -5.603895e+01 2.620000e+01
    endloop
  endfacet
  facet normal 1.000000e+00 -0.000000e+00 0.000000e+00
    outer loop
      vertex   3.803925e+01 -5.603895e+01 2.620000e+01
      vertex   3.803925e+01 1.956105e+01 2.400000e+01
      vertex   3.803925e+01 1.956105e+01 2.620000e+01
    endloop
  endfacet
  facet normal 0.000000e+00 -1.000000e+00 0.000000e+00
    outer loop
      vertex   3.803925e+01 -5.603895e+01 2.400000e+01
      vertex   3.803925e+01 -5.603895e+01 2.620000e+01
      vertex   3.000000e+01 -5.603895e+01 2.400000e+01
    endloop
  endfacet
  facet normal 0.000000e+00 -1.000000e+00 0.000000e+00
    outer loop
      vertex   3.000000e+01 -5.603895e+01 2.400000e+01
      vertex   3.803925e+01 -5.603895e+01 2.620000e+01
      vertex   -3.756075e+01 -5.603895e+01 2.620000e+01
    endloop
  endfacet
  facet normal 0.000000e+00 -1.000000e+00 0.000000e+00
    outer loop
      vertex   3.000000e+01 -5.603895e+01 2.400000e+01
      vertex   -3.756075e+01 -5.603895e+01 2.620000e+01
      vertex   -3.000000e+01 -5.603895e+01 2.400000e+01
    endloop
  endfacet
  facet normal 0.000000e+00 -1.000000e+00 0.000000e+00
    outer loop
      vertex   -3.000000e+01 -5.603895e+01 2.400000e+01
      vertex   -3.756075e+01 -5.603895e+01 2.620000e+01
      vertex   -3.756075e+01 -5.603895e+01 2.400000e+01
    endloop
  endfacet
  facet normal -1.000000e+00 0.000000e+00 0.000000e+00
    outer loop
      vertex   -3.756075e+01 1.956105e+01 2.400000e+01
      vertex   -3.756075e+01 -5.603895e+01 2.400000e+01
      vertex   -3.756075e+01 1.956105e+01 2.620000e+01
    endloop
  endfacet
  facet normal -1.000000e+00 -0.000000e+00 0.000000e+00
    outer loop
      vertex   -3.756075e+01 1.956105e+01 2.620000e+01
      vertex   -3.756075e+01 -5.603895e+01 2.400000e+01
      vertex   -3.756075e+01 -5.603895e+01 2.620000e+01
    endloop
  endfacet
  facet normal 0.000000e+00 0.000000e+00 1.000000e+00
    outer loop
      vertex   -3.756075e+01 -5.603895e+01 2.620000e+01
      vertex   3.803925e+01 -5.603895e+01 2.620000e+01
      vertex   -3.756075e+01 1.956105e+01 2.620000e+01
    endloop
  endfacet
  facet normal -0.000000e+00 0.000000e+00 1.000000e+00
    outer loop
      vertex   -3.756075e+01 1.956105e+01 2.620000e+01
      vertex   3.803925e+01 -5.603895e+01 2.620000e+01
      vertex   3.803925e+01 1.956105e+01 2.620000e+01
    endloop
  endfacet
  facet normal 0.000000e+00 0.000000e+00 1.000000e+00
    outer loop
      vertex   3.000000e+01 -5.603895e+01 2.400000e+01
      vertex   -3.000000e+01 -5.603895e+01 2.400000e+01
      vertex   3.000000e+01 -5.900000e+01 2.400000e+01
    endloop
  endfacet
  facet normal 0.000000e+00 0.000000e+00 1.000000e+00
    outer loop
      vertex   3.000000e+01 -5.900000e+01 2.400000e+01
      vertex   -3.000000e+01 -5.603895e+01 2.400000e+01
      vertex   -3.000000e+01 -5.900000e+01 2.400000e+01
    endloop
  endfacet
  facet normal 0.000000e+00 0.000000e+00 1.000000e+00
    outer loop
      vertex   -3.000000e+01 1.956105e+01 2.400000e+01
      vertex   3.000000e+01 1.956105e+01 2.400000e+01
      vertex   -3.000000e+01 5.200000e+01 2.400000e+01
    endloop
  endfacet
  facet normal -0.000000e+00 0.000000e+00 1.000000e+00
    outer loop
      vertex   -3.000000e+01 5.200000e+01 2.400000e+01
      vertex   3.000000e+01 1.956105e+01 2.400000e+01
      vertex   3.000000e+01 5.200000e+01 2.400000e+01
    endloop
  endfacet
  facet normal -1.000000e+00 -0.000000e+00 -0.000000e+00
    outer loop
      vertex   -3.000000e+01 5.200000e+01 2.400000e+01
      vertex   -3.000000e+01 5.200000e+01 2.200000e+01
      vertex   -3.000000e+01 1.956105e+01 2.400000e+01
    endloop
  endfacet
  facet normal -1.000000e+00 0.000000e+00 -0.000000e+00
    outer loop
      vertex   -3.000000e+01 1.956105e+01 2.400000e+01
      vertex   -3.000000e+01 5.200000e+01 2.200000e+01
      vertex   -3.000000e+01 -5.900000e+01 2.200000e+01
    endloop
  endfacet
  facet normal -1.000000e+00 -0.000000e+00 0.000000e+00
    outer loop
      vertex   -3.000000e+01 1.956105e+01 2.400000e+01
      vertex   -3.000000e+01 -5.900000e+01 2.200000e+01
      vertex   -3.000000e+01 -5.603895e+01 2.400000e+01
    endloop
  endfacet
  facet normal -1.000000e+00 -0.000000e+00 0.000000e+00
    outer loop
      vertex   -3.000000e+01 -5.603895e+01 2.400000e+01
      vertex   -3.000000e+01 -5.900000e+01 2.200000e+01
      vertex   -3.000000e+01 -5.900000e+01 2.400000e+01
    endloop
  endfacet
  facet normal 0.000000e+00 1.000000e+00 -0.000000e+00
    outer loop
      vertex   3.000000e+01 5.200000e+01 2.200000e+01
      vertex   -3.000000e+01 5.200000e+01 2.200000e+01
      vertex   3.000000e+01 5.200000e+01 2.400000e+01
    endloop
  endfacet
  facet normal 0.000000e+00 1.000000e+00 0.000000e+00
    outer loop
      vertex   3.000000e+01 5.200000e+01 2.400000e+01
      vertex   -3.000000e+01 5.200000e+01 2.200000e+01
      vertex   -3.000000e+01 5.200000e+01 2.400000e+01
    endloop
  endfacet
  facet normal 1.000000e+00 0.000000e+00 0.000000e+00
    outer loop
      vertex   3.000000e+01 5.200000e+01 2.200000e+01
      vertex   3.000000e+01 1.956105e+01 2.400000e+01
      vertex   3.000000e+01 -5.900000e+01 2.200000e+01
    endloop
  endfacet
  facet normal 1.000000e+00 0.000000e+00 0.000000e+00
    outer loop
      vertex   3.000000e+01 -5.900000e+01 2.200000e+01
      vertex   3.000000e+01 1.956105e+01 2.400000e+01
      vertex   3.000000e+01 -5.603895e+01 2.400000e+01
    endloop
  endfacet
  facet normal 1.000000e+00 0.000000e+00 0.000000e+00
    outer loop
      vertex   3.000000e+01 -5.900000e+01 2.200000e+01
      vertex   3.000000e+01 -5.603895e+01 2.400000e+01
      vertex   3.000000e+01 -5.900000e+01 2.400000e+01
    endloop
  endfacet
  facet normal 1.000000e+00 0.000000e+00 -0.000000e+00
    outer loop
      vertex   3.000000e+01 5.200000e+01 2.200000e+01
      vertex   3.000000e+01 5.200000e+01 2.400000e+01
      vertex   3.000000e+01 1.956105e+01 2.400000e+01
    endloop
  endfacet
  facet normal 0.000000e+00 -1.000000e+00 0.000000e+00
    outer loop
      vertex   -3.000000e+01 -5.900000e+01 2.200000e+01
      vertex   3.000000e+01 -5.900000e+01 2.200000e+01
      vertex   -3.000000e+01 -5.900000e+01 2.400000e+01
    endloop
  endfacet
  facet normal 0.000000e+00 -1.000000e+00 0.000000e+00
    outer loop
      vertex   -3.000000e+01 -5.900000e+01 2.400000e+01
      vertex   3.000000e+01 -5.900000e+01 2.200000e+01
      vertex   3.000000e+01 -5.900000e+01 2.400000e+01
    endloop
  endfacet
  facet normal 0.000000e+00 0.000000e+00 -1.000000e+00
    outer loop
      vertex   3.000000e+01 -5.900000e+01 2.200000e+01
      vertex   -3.000000e+01 -5.900000e+01 2.200000e+01
      vertex   3.000000e+01 5.200000e+01 2.200000e+01
    endloop
  endfacet
  facet normal -0.000000e+00 0.000000e+00 -1.000000e+00
    outer loop
      vertex   3.000000e+01 5.200000e+01 2.200000e+01
      vertex   -3.000000e+01 -5.900000e+01 2.200000e+01
      vertex   -3.000000e+01 5.200000e+01 2.200000e+01
    endloop
  endfacet
endsolid
